<?xml version="1.0" standalone="no"?>
<!DOCTYPE svg PUBLIC "-//W3C//DTD SVG 20010904//EN"
 "http://www.w3.org/TR/2001/REC-SVG-20010904/DTD/svg10.dtd">
<svg version="1.0" xmlns="http://www.w3.org/2000/svg"
 width="562.000000pt" height="562.000000pt" viewBox="0 0 562.000000 562.000000"
 preserveAspectRatio="xMidYMid meet">
<metadata>
Created by potrace 1.14, written by Peter Selinger 2001-2017
</metadata>
<g transform="translate(0.000000,562.000000) scale(0.100000,-0.100000)"
fill="#000000" stroke="none">
<path d="M1488 4329 c-8 -5 -41 -7 -72 -6 -31 2 -56 0 -56 -3 0 -4 -28 -6 -62
-5 -68 2 -252 -28 -271 -43 -12 -10 -69 -26 -97 -27 -8 -1 -27 5 -42 14 -25
14 -28 13 -45 -8 -17 -21 -20 -22 -32 -7 -21 25 -34 19 -56 -21 -13 -24 -37
-46 -68 -63 -30 -16 -54 -38 -66 -60 -21 -40 -22 -49 -11 -71 11 -20 -61 -87
-111 -103 -18 -6 -39 -21 -45 -34 -6 -13 -21 -30 -32 -38 -11 -8 -23 -27 -27
-43 -3 -16 -13 -35 -20 -41 -16 -13 -75 -115 -75 -128 0 -5 8 -18 18 -30 27
-31 24 -163 -4 -218 -19 -34 -20 -43 -8 -59 8 -10 11 -29 8 -42 -7 -26 19 -63
43 -63 7 0 13 -5 13 -10 0 -6 22 -33 50 -60 27 -27 48 -55 45 -62 -7 -19 12
-39 83 -89 143 -99 141 -98 173 -87 16 6 39 8 51 5 12 -4 37 1 55 10 26 12 42
13 72 6 25 -7 45 -7 56 -1 9 6 29 8 44 5 16 -3 45 2 70 14 24 10 52 19 62 19
10 0 19 5 19 10 0 12 49 13 66 2 7 -4 21 -23 31 -42 20 -35 20 -35 82 -32 56
3 64 1 86 -22 17 -18 23 -35 20 -54 -8 -59 -28 -137 -37 -143 -13 -8 14 -54
64 -107 45 -48 70 -85 75 -112 1 -8 13 -37 27 -65 15 -32 21 -54 15 -61 -9
-11 -6 -26 11 -69 17 -41 17 -64 1 -82 -30 -33 -51 -67 -51 -85 0 -9 -5 -29
-11 -45 -21 -52 -17 -109 10 -152 58 -89 86 -149 92 -196 16 -121 31 -167 65
-205 39 -44 96 -162 89 -188 -3 -13 -1 -30 5 -38 7 -7 8 -19 4 -26 -4 -7 -3
-10 1 -5 5 4 19 0 32 -8 15 -10 32 -13 46 -9 12 4 38 9 57 10 19 1 57 4 85 8
27 4 73 8 101 11 82 6 136 24 184 63 61 50 72 61 105 107 16 22 37 47 47 55
23 19 51 107 37 115 -19 12 -8 23 51 49 54 25 60 30 62 59 2 53 -5 89 -24 125
-12 22 -8 28 52 83 l65 59 -175 0 -175 0 -1 50 0 50 95 1 c205 1 305 19 183
33 -56 6 -59 8 -57 34 4 51 -18 62 -117 61 -49 -1 -92 2 -96 5 -3 4 -7 19 -8
34 -2 24 4 31 47 51 62 28 119 85 149 148 19 39 24 67 26 157 2 60 6 112 11
115 51 38 36 141 -20 141 -51 0 -58 19 -61 148 -2 79 -8 128 -19 152 -17 39
-83 110 -102 110 -7 0 -18 7 -25 15 -11 13 20 15 266 15 l278 0 -38 35 c-21
19 -43 35 -48 35 -17 0 -37 27 -56 78 -11 28 -33 62 -48 76 -23 19 -29 33 -30
68 -2 54 -11 76 -42 103 -14 12 -26 31 -27 42 0 12 -6 27 -12 35 -9 11 -21 34
-64 120 -14 28 -12 43 5 29 11 -10 17 -4 28 31 13 38 13 47 -1 78 -15 32 -20
35 -61 37 -93 5 -117 5 -175 2 -67 -3 -157 8 -165 20 -3 5 -17 9 -31 9 -15 0
-40 9 -56 21 -22 16 -37 20 -59 15 -16 -3 -49 -8 -73 -10 -51 -4 -85 -29 -77
-57 3 -13 0 -17 -9 -13 -7 2 -30 8 -50 12 -21 4 -42 16 -51 29 -14 22 -53 35
-114 40 -14 1 -45 12 -69 24 l-43 22 23 25 c21 22 21 26 8 51 -11 20 -11 27
-1 30 6 3 12 9 12 15 0 6 -7 8 -15 4 -8 -3 -15 -2 -15 3 0 13 -35 20 -52 10z
m1041 -1706 c-1 -90 -5 -115 -24 -153 -28 -55 -67 -96 -118 -122 -67 -34 -61
2 7 43 27 17 55 46 72 75 24 41 28 59 30 140 2 81 13 121 32 124 2 0 2 -48 1
-107z"/>
<path d="M3025 3271 c-11 -5 -28 -17 -37 -28 -21 -23 -218 -607 -218 -645 0
-37 37 -71 70 -63 32 8 36 15 63 102 13 42 28 73 37 75 8 2 64 3 124 3 l110
-1 23 -74 c34 -106 71 -133 118 -86 35 36 39 22 -103 432 -44 127 -86 241 -93
252 -10 16 -64 47 -73 41 -1 0 -10 -4 -21 -8z m31 -179 c0 -4 3 -14 7 -22 3
-8 21 -65 40 -127 l35 -111 -69 -4 c-115 -5 -112 -12 -67 127 21 66 38 129 38
139 0 17 14 15 16 -2z"/>
<path d="M3972 3253 c-34 -34 -40 -9 125 -532 54 -169 73 -197 131 -186 20 3
44 16 53 27 15 20 172 500 200 610 9 40 9 52 -4 72 -23 35 -55 39 -83 11 -13
-13 -26 -36 -30 -52 -4 -15 -37 -134 -74 -263 -64 -222 -68 -233 -78 -200 -5
19 -37 130 -70 246 -34 117 -67 227 -75 247 -20 46 -60 55 -95 20z"/>
<path d="M4745 3270 c-11 -4 -28 -16 -37 -27 -21 -23 -218 -607 -218 -645 0
-30 34 -68 61 -68 29 0 46 25 73 108 l26 78 113 -2 c61 -1 117 -2 123 -3 6 -1
17 -22 24 -48 29 -107 65 -147 110 -123 40 21 43 60 12 155 -55 168 -183 527
-194 544 -11 19 -33 31 -63 37 -5 1 -19 -2 -30 -6z m72 -307 l40 -131 -66 -4
c-120 -6 -114 -16 -69 130 22 70 40 133 41 140 1 28 16 -9 54 -135z"/>
<path d="M3461 3256 c-10 -4 -23 -18 -29 -30 -6 -14 -9 -143 -8 -338 1 -295 2
-317 20 -337 24 -26 47 -27 77 -2 22 18 24 28 29 147 l5 128 70 -2 c145 -3
231 46 255 148 12 50 9 136 -6 175 -22 60 -74 102 -137 112 -55 9 -256 8 -276
-1z m275 -139 c36 -42 34 -109 -5 -148 -16 -16 -38 -30 -48 -30 -10 -1 -44 -2
-75 -3 l-58 -2 0 109 0 109 81 -4 c74 -3 83 -6 105 -31z"/>
<path d="M3011 2348 c-23 -67 -26 -98 -12 -98 5 0 13 9 16 20 8 26 46 26 63 0
17 -28 33 -16 22 18 -25 82 -43 122 -55 122 -7 0 -23 -28 -34 -62z m40 -31
c-15 -15 -21 -5 -14 22 5 21 7 21 16 6 6 -11 5 -21 -2 -28z"/>
<path d="M3546 2402 c-3 -6 -1 -14 5 -17 15 -10 25 3 12 16 -7 7 -13 7 -17 1z"/>
<path d="M3700 2391 c0 -11 -5 -23 -10 -26 -7 -5 -8 -11 -1 -19 5 -6 9 -25 9
-42 -1 -43 7 -53 45 -50 32 2 32 3 32 54 0 29 -4 52 -10 52 -5 0 -10 -20 -10
-45 0 -48 -5 -54 -26 -29 -10 12 -10 22 -2 43 8 21 7 35 -4 55 -16 31 -23 33
-23 7z"/>
<path d="M3756 2402 c-3 -6 -1 -14 5 -17 15 -10 25 3 12 16 -7 7 -13 7 -17 1z"/>
<path d="M4177 2380 c-9 -16 -11 -32 -6 -35 4 -3 8 -20 7 -38 -1 -55 1 -61 15
-49 7 6 12 26 11 44 -1 18 3 36 9 40 8 4 7 11 -2 22 -11 13 -11 17 3 22 22 9
20 24 -3 24 -12 0 -26 -12 -34 -30z"/>
<path d="M4311 2351 c-11 -32 -21 -69 -21 -82 l1 -24 18 23 c24 27 61 29 68 3
3 -11 11 -17 18 -15 14 6 12 15 -20 107 -9 26 -23 47 -30 47 -7 0 -22 -26 -34
-59z m41 -33 c-13 -13 -24 5 -16 27 7 16 8 16 17 0 6 -11 6 -20 -1 -27z"/>
<path d="M4428 2383 c-6 -16 -10 -32 -8 -38 3 -11 8 -48 9 -77 2 -39 21 -15
21 26 0 27 5 46 13 49 9 3 9 7 -1 19 -10 13 -10 17 3 22 22 8 18 26 -5 26 -13
0 -25 -10 -32 -27z"/>
<path d="M4566 2402 c-3 -6 -1 -14 5 -17 15 -10 25 3 12 16 -7 7 -13 7 -17 1z"/>
<path d="M3132 2358 c-19 -19 -14 -37 13 -50 14 -6 25 -18 25 -26 0 -12 -4
-12 -25 2 -22 15 -25 15 -25 1 0 -23 46 -41 65 -25 23 19 18 49 -10 60 -14 5
-25 14 -25 20 0 14 17 13 22 -2 2 -6 10 -8 17 -4 9 6 9 11 0 22 -14 17 -41 18
-57 2z"/>
<path d="M3229 2354 c-10 -12 -10 -20 -1 -34 7 -12 8 -21 2 -25 -17 -10 -11
-25 15 -37 19 -8 28 -8 40 2 25 21 18 50 -16 62 -23 8 -28 13 -19 22 9 8 14 8
17 -1 5 -14 33 -18 33 -5 0 30 -50 41 -71 16z m41 -69 c0 -9 -6 -12 -15 -9 -8
4 -15 10 -15 15 0 5 7 9 15 9 8 0 15 -7 15 -15z"/>
<path d="M3336 2354 c-17 -16 -21 -61 -8 -82 12 -18 48 -22 68 -8 23 17 21 76
-2 93 -23 17 -39 16 -58 -3z m49 -53 c-3 -11 -12 -21 -20 -21 -17 0 -25 33
-13 55 9 15 12 15 25 2 9 -9 13 -23 8 -36z"/>
<path d="M3447 2352 c-35 -38 -10 -105 36 -98 22 3 46 31 35 41 -3 4 -16 0
-27 -7 -18 -11 -23 -11 -30 1 -20 32 10 66 36 40 8 -8 13 -7 18 2 5 7 1 17
-10 26 -25 18 -39 17 -58 -5z"/>
<path d="M3547 2363 c-9 -8 -9 -76 -1 -97 12 -30 24 -5 24 50 0 50 -7 64 -23
47z"/>
<path d="M3599 2348 c-7 -13 -6 -18 5 -18 8 0 16 4 18 10 2 6 9 6 18 0 12 -7
8 -12 -18 -21 -28 -9 -33 -16 -30 -38 3 -27 31 -36 56 -18 8 6 12 6 12 -2 0
-6 5 -11 10 -11 13 0 11 77 -2 102 -11 23 -56 20 -69 -4z m47 -64 c-5 -14 -9
-15 -19 -5 -9 9 -9 14 3 21 18 11 24 6 16 -16z"/>
<path d="M3816 2354 c-31 -31 -11 -104 29 -104 43 0 63 89 26 110 -27 14 -37
13 -55 -6z m49 -44 c0 -29 -30 -40 -37 -13 -7 27 2 44 21 41 10 -2 16 -13 16
-28z"/>
<path d="M3916 2360 c-8 -13 0 -95 9 -98 6 -1 12 14 15 34 6 46 30 59 30 16 0
-38 9 -64 21 -56 12 7 11 75 -1 94 -9 14 -68 22 -74 10z"/>
<path d="M4076 2354 c-31 -30 -11 -104 28 -104 44 0 67 80 31 106 -24 18 -40
18 -59 -2z m50 -48 c-2 -11 -10 -22 -18 -24 -19 -4 -29 29 -16 52 13 23 39 2
34 -28z"/>
<path d="M4485 2360 c-5 -9 -4 -72 2 -93 7 -28 23 -9 23 30 0 27 5 36 20 40
12 3 19 11 17 17 -4 11 -55 17 -62 6z"/>
<path d="M4566 2362 c-6 -10 -6 -71 1 -95 9 -32 23 -6 23 43 0 45 -12 71 -24
52z"/>
<path d="M4638 2363 c-37 -9 -35 -96 2 -108 24 -8 60 11 60 30 0 17 -16 20
-25 5 -10 -17 -32 -11 -38 9 -8 31 9 48 32 34 15 -9 22 -10 27 -1 6 10 -22 40
-35 37 -3 -1 -14 -3 -23 -6z"/>
<path d="M4728 2353 c-16 -19 0 -29 22 -15 12 7 21 8 25 2 4 -6 -7 -15 -24
-21 -23 -8 -31 -17 -31 -35 0 -29 21 -40 49 -24 14 7 21 7 21 0 0 -5 4 -10 10
-10 11 0 9 89 -3 107 -10 16 -55 13 -69 -4z m41 -74 c-9 -5 -15 -4 -18 2 -2 6
3 15 10 20 9 5 15 4 18 -2 2 -6 -3 -15 -10 -20z"/>
<path d="M4835 2360 c-1 -3 -2 -27 -1 -55 1 -53 18 -65 23 -18 8 65 33 75 33
14 0 -42 14 -62 24 -35 10 27 7 81 -6 92 -13 10 -67 12 -73 2z"/>
<path d="M2717 2233 c-3 -7 -2 -96 2 -131 2 -24 26 -6 26 19 0 18 6 25 25 27
14 2 30 10 36 18 13 16 7 55 -10 66 -14 10 -74 10 -79 1z m60 -29 c8 -20 -13
-42 -27 -28 -12 12 -3 44 11 44 5 0 12 -7 16 -16z"/>
<path d="M3000 2216 c0 -19 -4 -23 -20 -19 -29 8 -50 -14 -50 -53 0 -35 25
-69 42 -58 6 4 20 7 31 8 18 1 20 7 20 59 -2 84 -2 87 -13 87 -5 0 -10 -11
-10 -24z m-5 -73 c3 -19 -21 -41 -32 -29 -10 9 -10 42 0 54 12 15 26 4 32 -25z"/>
<path d="M3370 2222 c0 -10 -5 -23 -12 -30 -8 -8 -8 -12 -1 -12 6 0 10 -12 11
-27 0 -60 2 -63 27 -63 27 0 34 15 10 24 -18 7 -20 47 -2 65 10 11 10 14 0 18
-7 3 -13 13 -13 24 0 10 -4 19 -10 19 -5 0 -10 -8 -10 -18z"/>
<path d="M4030 2216 c0 -19 -4 -23 -20 -19 -29 8 -50 -14 -50 -52 0 -37 28
-69 49 -55 8 4 20 6 27 3 9 -3 13 13 16 55 1 33 2 67 0 76 -5 25 -22 19 -22
-8z m-5 -73 c4 -24 -20 -39 -32 -20 -11 17 -11 30 0 45 12 15 26 4 32 -25z"/>
<path d="M4111 2218 c1 -40 35 -123 52 -126 12 -2 21 14 36 63 25 80 25 85 7
85 -9 0 -17 -15 -21 -38 -11 -66 -22 -71 -38 -17 -15 52 -38 73 -36 33z"/>
<path d="M4335 2231 c-6 -11 9 -23 19 -14 9 9 7 23 -3 23 -6 0 -12 -4 -16 -9z"/>
<path d="M4858 2218 c-3 -20 -8 -23 -45 -21 l-43 2 0 -55 c0 -40 4 -54 14 -54
10 0 16 14 18 42 3 38 6 43 28 43 22 -1 25 -5 27 -39 3 -43 18 -59 42 -47 9 5
22 6 29 4 9 -3 12 11 12 52 0 41 -3 55 -12 52 -12 -4 -14 -12 -17 -64 -1 -13
-7 -23 -15 -23 -17 0 -18 60 -1 73 6 4 5 10 -3 16 -8 4 -13 11 -13 15 3 18 0
26 -8 26 -5 0 -11 -10 -13 -22z"/>
<path d="M4916 2225 c4 -8 10 -12 15 -9 14 8 10 24 -6 24 -9 0 -12 -6 -9 -15z"/>
<path d="M5067 2234 c-3 -3 -3 -12 0 -20 3 -8 0 -14 -6 -14 -9 0 -9 -5 -1 -20
6 -10 10 -23 9 -27 -1 -4 -1 -20 0 -35 1 -27 2 -27 64 -25 55 2 62 4 65 24 2
16 -5 26 -30 39 -19 10 -27 19 -20 22 7 2 19 -1 26 -8 9 -6 17 -7 20 -2 10 16
-22 35 -49 28 -33 -8 -33 -43 0 -58 14 -6 25 -15 25 -20 0 -13 -28 -9 -33 5
-4 10 -7 10 -18 0 -7 -7 -16 -13 -20 -13 -12 0 -7 64 5 73 8 6 7 10 -1 14 -7
2 -13 13 -13 24 0 19 -11 25 -23 13z"/>
<path d="M2832 2188 c-7 -7 -12 -26 -12 -43 0 -36 15 -55 46 -55 27 0 47 23
47 55 0 47 -50 74 -81 43z m52 -55 c-6 -9 -15 -18 -21 -20 -15 -5 -22 31 -11
52 9 16 11 16 26 1 13 -12 14 -21 6 -33z"/>
<path d="M3048 2175 c-18 -40 0 -79 38 -83 22 -2 33 2 38 13 10 26 -4 38 -20
18 -13 -17 -15 -17 -29 1 -17 23 -1 66 18 47 15 -15 37 -14 37 3 0 34 -67 35
-82 1z"/>
<path d="M3160 2180 c-12 -22 -1 -27 18 -8 9 9 15 9 23 1 7 -7 1 -14 -21 -21
-25 -9 -31 -16 -28 -34 3 -20 9 -23 46 -24 l43 -1 -2 41 c-4 59 -8 66 -40 66
-18 0 -32 -7 -39 -20z m50 -49 c0 -12 -20 -25 -27 -18 -7 7 6 27 18 27 5 0 9
-4 9 -9z"/>
<path d="M3266 2184 c-10 -26 -7 -34 19 -46 28 -12 33 -28 10 -28 -8 0 -15 5
-15 10 0 6 -4 10 -10 10 -19 0 -10 -31 13 -39 50 -19 81 39 32 61 -14 6 -25
15 -25 20 0 11 18 10 25 -2 4 -6 11 -8 16 -4 16 9 -10 34 -36 34 -13 0 -26 -7
-29 -16z"/>
<path d="M3432 2188 c-35 -35 6 -115 50 -99 24 8 38 41 19 41 -6 0 -11 -4 -11
-10 0 -5 -9 -10 -21 -10 -21 0 -22 24 -1 26 7 1 19 2 27 3 18 1 20 32 3 49 -7
7 -21 12 -33 12 -12 0 -26 -5 -33 -12z m48 -27 c0 -4 -7 -8 -15 -8 -16 0 -20
9 -9 20 8 8 24 -1 24 -12z"/>
<path d="M3536 2192 c-3 -3 -6 -27 -6 -54 0 -58 23 -63 28 -7 5 48 14 53 48
24 16 -14 32 -25 37 -25 4 0 7 -4 7 -10 0 -14 -28 -12 -33 3 -2 6 -8 9 -12 5
-18 -17 5 -39 37 -36 44 4 52 42 14 60 -14 6 -26 15 -26 20 0 11 18 10 25 -2
4 -6 11 -8 16 -4 6 4 6 10 0 18 -11 13 -124 19 -135 8z"/>
<path d="M3751 2187 c-14 -18 -2 -30 16 -15 10 8 17 8 24 1 7 -7 1 -14 -20
-21 -21 -7 -31 -18 -31 -31 0 -22 35 -47 44 -32 3 5 15 7 26 4 17 -5 20 0 20
31 0 21 -5 46 -10 57 -12 22 -52 25 -69 6z m49 -64 c0 -7 -7 -13 -15 -13 -8 0
-15 6 -15 13 0 8 7 14 15 14 8 0 15 -6 15 -14z"/>
<path d="M3855 2189 c-3 -4 -4 -28 -3 -53 2 -56 26 -65 26 -10 0 39 18 68 26
43 3 -8 6 -27 8 -43 2 -16 9 -31 16 -34 14 -4 17 74 4 95 -8 13 -70 15 -77 2z"/>
<path d="M4232 2188 c-38 -38 8 -124 52 -95 27 19 36 50 22 78 -13 27 -54 37
-74 17z m52 -55 c-17 -26 -31 -26 -36 1 -7 34 11 51 31 31 12 -11 13 -20 5
-32z"/>
<path d="M4337 2193 c-4 -3 -7 -28 -7 -55 0 -36 4 -48 15 -48 12 0 15 13 15
55 0 51 -7 65 -23 48z"/>
<path d="M4390 2181 c-14 -26 -13 -64 2 -79 17 -17 65 -15 72 4 10 25 -4 37
-20 17 -13 -17 -15 -17 -29 1 -21 28 -2 61 25 44 24 -15 37 -4 20 17 -18 21
-57 19 -70 -4z"/>
<path d="M4500 2181 c-16 -32 -12 -69 11 -85 25 -17 62 -7 67 18 3 15 0 16
-16 7 -28 -15 -42 -14 -42 3 0 7 8 13 18 13 35 0 42 3 42 21 0 41 -60 59 -80
23z m50 -16 c0 -8 -4 -15 -9 -15 -13 0 -22 16 -14 24 11 11 23 6 23 -9z"/>
<path d="M4670 2185 c-17 -20 -5 -32 15 -15 11 9 19 10 26 3 7 -7 1 -14 -21
-21 -25 -9 -31 -16 -28 -34 3 -20 9 -23 46 -24 l42 -2 0 42 c0 23 -5 47 -12
54 -17 17 -53 15 -68 -3z m48 -57 c-3 -7 -13 -15 -24 -17 -16 -3 -17 -1 -5 13
16 19 34 21 29 4z"/>
<path d="M4973 2193 c-22 -8 -14 -39 12 -53 28 -15 33 -30 10 -30 -8 0 -15 5
-15 10 0 6 -4 10 -10 10 -19 0 -10 -31 13 -39 50 -19 81 39 32 61 -14 6 -25
15 -25 20 0 11 18 10 25 -2 4 -6 11 -8 16 -4 14 8 -9 34 -30 33 -9 0 -22 -3
-28 -6z"/>
<path d="M4602 2153 c-19 -8 -4 -23 24 -23 16 0 24 5 22 13 -5 13 -26 18 -46
10z"/>
</g>
</svg>
